<?xml version="1.0" encoding="UTF-8"?>
<svg width="51px" height="50px" viewBox="0 0 51 50" version="1.1" xmlns="http://www.w3.org/2000/svg" xmlns:xlink="http://www.w3.org/1999/xlink">
    <title>172512_mute_icon</title>
    <g id="Page-1" stroke="none" stroke-width="1" fill="none" fill-rule="evenodd">
        <g id="172512_mute_icon" transform="translate(1.000000, 0.000000)">
            <line x1="32" y1="20" x2="42" y2="30" id="Path" stroke="#FFFFFF" stroke-width="2" stroke-linecap="round"></line>
            <line x1="42" y1="20" x2="32" y2="30" id="Path" stroke="#FFFFFF" stroke-width="2" stroke-linecap="round"></line>
            <rect id="Rectangle" x="0" y="0" width="50" height="50"></rect>
            <rect id="Rectangle" x="0" y="0" width="50" height="50"></rect>
            <path d="M10,33 L3,33 C1.897,33 1,32.102 1,31 L1,19 C1,17.898 1.897,17 3,17 L10,17" id="Path" stroke="#FFFFFF" stroke-width="2.08" stroke-linejoin="round"></path>
            <path d="M9.604,32.43 C9.256,32.129 9,31.391 9,30.754 L9,19.247 C9,18.61 9.256,17.859 9.604,17.558 L22.274,4.926 C23.905,3.27 26,3.898 26,6.327 L26,43.315 C26,45.929 24.104,46.919 22.215,45.001 L9.604,32.43 Z" id="Path" stroke="#FFFFFF" stroke-width="1.9797" stroke-linejoin="round"></path>
        </g>
    </g>
</svg>